<svg width="243" height="382" viewBox="0 0 243 382" fill="none" xmlns="http://www.w3.org/2000/svg">
<g filter="url(#filter0_d)">
<rect x="8" y="4" width="227" height="366" rx="35" fill="white" fill-opacity="0.9"/>
</g>
<g clip-path="url(#clip0)">
<path d="M60.5994 108.066C57.6703 108.066 55.1851 109.087 53.1422 111.13C51.0993 113.173 50.0775 115.624 50.0775 118.486V162.415C50.0775 165.348 51.099 167.831 53.1422 169.875C55.1851 171.917 57.6703 172.939 60.5994 172.939C63.5263 172.939 65.9965 171.918 68.0077 169.875C70.015 167.832 71.0214 165.348 71.0214 162.415V118.486C71.0214 115.624 69.9999 113.173 67.9567 111.13C65.9135 109.087 63.4606 108.066 60.5994 108.066Z" fill="#4997D0"/>
<path d="M145.192 68.6297L152.446 55.2485C152.922 54.3627 152.752 53.6833 151.936 53.2057C151.05 52.7938 150.369 53.0025 149.893 53.817L142.538 67.3052C136.066 64.4437 129.221 63.0104 122.002 63.0104C114.782 63.0104 107.936 64.444 101.467 67.3052L94.1114 53.817C93.6334 53.0025 92.9525 52.7956 92.0685 53.2057C91.2502 53.6855 91.0809 54.3627 91.5589 55.2485L98.8129 68.6297C91.4574 72.3808 85.5992 77.6048 81.2405 84.3133C76.8817 91.0254 74.7014 98.3602 74.7014 106.331H169.2C169.2 98.3621 167.02 91.0269 162.661 84.3133C158.302 77.6048 152.478 72.3808 145.192 68.6297ZM103.254 88.0929C102.47 88.8792 101.533 89.2705 100.444 89.2705C99.3524 89.2705 98.4345 88.8792 97.6857 88.0929C96.9369 87.3103 96.5625 86.3771 96.5625 85.2843C96.5625 84.1952 96.9369 83.2601 97.6857 82.4757C98.4345 81.6931 99.3545 81.3018 100.444 81.3018C101.533 81.3018 102.47 81.6931 103.254 82.4757C104.037 83.262 104.43 84.1952 104.43 85.2843C104.428 86.3752 104.035 87.3103 103.254 88.0929ZM146.315 88.0929C145.564 88.8792 144.644 89.2705 143.557 89.2705C142.466 89.2705 141.529 88.8792 140.746 88.0929C139.962 87.3103 139.571 86.3771 139.571 85.2843C139.571 84.1952 139.962 83.2601 140.746 82.4757C141.529 81.6931 142.466 81.3018 143.557 81.3018C144.646 81.3018 145.564 81.6931 146.315 82.4757C147.064 83.262 147.438 84.1952 147.438 85.2843C147.438 86.3752 147.064 87.3103 146.315 88.0929Z" fill="#4997D0"/>
<path d="M75.1072 178.046C75.1072 181.182 76.1963 183.837 78.3747 186.015C80.555 188.194 83.2096 189.283 86.3434 189.283H93.9039L94.0075 212.477C94.0075 215.405 95.029 217.892 97.0719 219.936C99.1148 221.979 101.568 223 104.427 223C107.355 223 109.841 221.979 111.885 219.936C113.928 217.892 114.949 215.406 114.949 212.477V189.285H129.047V212.477C129.047 215.405 130.068 217.892 132.112 219.936C134.155 221.979 136.639 223 139.569 223C142.496 223 144.983 221.979 147.026 219.936C149.069 217.892 150.09 215.406 150.09 212.477V189.285H157.753C160.817 189.285 163.438 188.196 165.62 186.017C167.798 183.839 168.888 181.184 168.888 178.049V110.005H75.1072V178.046Z" fill="#4997D0"/>
<path d="M183.401 108.066C180.539 108.066 178.088 109.072 176.045 111.079C174.002 113.09 172.981 115.56 172.981 118.486V162.415C172.981 165.348 174.002 167.831 176.045 169.875C178.088 171.918 180.541 172.939 183.401 172.939C186.328 172.939 188.815 171.918 190.858 169.875C192.901 167.831 193.923 165.348 193.923 162.415V118.486C193.923 115.56 192.901 113.09 190.858 111.079C188.815 109.072 186.328 108.066 183.401 108.066Z" fill="#4997D0"/>
</g>
<path d="M78.5173 281.83H81.3793L88.8313 301H85.6453L83.6203 295.789H76.2223L74.2243 301H71.0113L78.5173 281.83ZM83.0263 293.548L79.9483 285.151L76.7623 293.548H83.0263ZM103.487 301H100.517V293.089C100.517 291.757 100.301 290.794 99.869 290.2C99.455 289.588 98.834 289.282 98.006 289.282C97.43 289.282 96.854 289.426 96.278 289.714C95.72 290.002 95.216 290.398 94.766 290.902C94.316 291.406 93.992 291.973 93.794 292.603V301H90.824V286.879H93.524V289.714C94.064 288.778 94.847 288.031 95.873 287.473C96.899 286.915 98.033 286.636 99.275 286.636C100.391 286.636 101.255 286.906 101.867 287.446C102.479 287.968 102.902 288.661 103.136 289.525C103.37 290.389 103.487 291.343 103.487 292.387V301ZM106.043 293.953C106.043 292.603 106.313 291.379 106.853 290.281C107.411 289.165 108.167 288.283 109.121 287.635C110.075 286.969 111.173 286.636 112.415 286.636C113.495 286.636 114.467 286.915 115.331 287.473C116.213 288.031 116.897 288.724 117.383 289.552V281.29H120.353V297.652C120.353 297.994 120.416 298.237 120.542 298.381C120.668 298.525 120.875 298.606 121.163 298.624V301C120.605 301.09 120.173 301.135 119.867 301.135C119.309 301.135 118.832 300.982 118.436 300.676C118.058 300.352 117.86 299.956 117.842 299.488L117.815 298.435C117.275 299.335 116.546 300.037 115.628 300.541C114.71 301.027 113.756 301.27 112.766 301.27C111.47 301.27 110.309 300.937 109.283 300.271C108.275 299.605 107.483 298.723 106.907 297.625C106.331 296.509 106.043 295.285 106.043 293.953ZM117.383 295.924V292.225C117.167 291.649 116.843 291.136 116.411 290.686C115.979 290.218 115.484 289.849 114.926 289.579C114.386 289.309 113.846 289.174 113.306 289.174C112.46 289.174 111.722 289.408 111.092 289.876C110.48 290.326 109.994 290.92 109.634 291.658C109.292 292.396 109.121 293.179 109.121 294.007C109.121 294.871 109.31 295.663 109.688 296.383C110.084 297.103 110.615 297.679 111.281 298.111C111.947 298.525 112.694 298.732 113.522 298.732C114.026 298.732 114.548 298.615 115.088 298.381C115.646 298.129 116.132 297.796 116.546 297.382C116.96 296.95 117.239 296.464 117.383 295.924ZM132.064 289.444C130.912 289.48 129.886 289.75 128.986 290.254C128.104 290.74 127.474 291.442 127.096 292.36V301H124.126V286.879H126.88V290.038C127.366 289.066 128.005 288.292 128.797 287.716C129.589 287.122 130.426 286.798 131.308 286.744C131.47 286.744 131.614 286.744 131.74 286.744C131.866 286.744 131.974 286.753 132.064 286.771V289.444ZM140.332 301.27C138.856 301.27 137.569 300.937 136.471 300.271C135.391 299.587 134.554 298.696 133.96 297.598C133.366 296.482 133.069 295.267 133.069 293.953C133.069 292.639 133.366 291.433 133.96 290.335C134.572 289.219 135.418 288.328 136.498 287.662C137.596 286.978 138.874 286.636 140.332 286.636C141.79 286.636 143.059 286.978 144.139 287.662C145.237 288.328 146.083 289.219 146.677 290.335C147.289 291.433 147.595 292.639 147.595 293.953C147.595 295.267 147.298 296.482 146.704 297.598C146.11 298.696 145.264 299.587 144.166 300.271C143.086 300.937 141.808 301.27 140.332 301.27ZM136.12 293.98C136.12 294.88 136.309 295.69 136.687 296.41C137.065 297.13 137.569 297.697 138.199 298.111C138.829 298.525 139.54 298.732 140.332 298.732C141.106 298.732 141.808 298.525 142.438 298.111C143.086 297.679 143.599 297.103 143.977 296.383C144.355 295.663 144.544 294.853 144.544 293.953C144.544 293.053 144.355 292.243 143.977 291.523C143.599 290.803 143.086 290.236 142.438 289.822C141.808 289.39 141.106 289.174 140.332 289.174C139.558 289.174 138.847 289.39 138.199 289.822C137.569 290.236 137.065 290.812 136.687 291.55C136.309 292.27 136.12 293.08 136.12 293.98ZM150.229 284.557V281.29H153.199V284.557H150.229ZM150.229 301V286.879H153.199V301H150.229ZM155.877 293.953C155.877 292.603 156.147 291.379 156.687 290.281C157.245 289.165 158.001 288.283 158.955 287.635C159.909 286.969 161.007 286.636 162.249 286.636C163.329 286.636 164.301 286.915 165.165 287.473C166.047 288.031 166.731 288.724 167.217 289.552V281.29H170.187V297.652C170.187 297.994 170.25 298.237 170.376 298.381C170.502 298.525 170.709 298.606 170.997 298.624V301C170.439 301.09 170.007 301.135 169.701 301.135C169.143 301.135 168.666 300.982 168.27 300.676C167.892 300.352 167.694 299.956 167.676 299.488L167.649 298.435C167.109 299.335 166.38 300.037 165.462 300.541C164.544 301.027 163.59 301.27 162.6 301.27C161.304 301.27 160.143 300.937 159.117 300.271C158.109 299.605 157.317 298.723 156.741 297.625C156.165 296.509 155.877 295.285 155.877 293.953ZM167.217 295.924V292.225C167.001 291.649 166.677 291.136 166.245 290.686C165.813 290.218 165.318 289.849 164.76 289.579C164.22 289.309 163.68 289.174 163.14 289.174C162.294 289.174 161.556 289.408 160.926 289.876C160.314 290.326 159.828 290.92 159.468 291.658C159.126 292.396 158.955 293.179 158.955 294.007C158.955 294.871 159.144 295.663 159.522 296.383C159.918 297.103 160.449 297.679 161.115 298.111C161.781 298.525 162.528 298.732 163.356 298.732C163.86 298.732 164.382 298.615 164.922 298.381C165.48 298.129 165.966 297.796 166.38 297.382C166.794 296.95 167.073 296.464 167.217 295.924ZM58.4539 333V313.83H65.2579C67.3279 313.83 69.0469 314.262 70.4149 315.126C71.8009 315.972 72.8449 317.124 73.5469 318.582C74.2489 320.022 74.5999 321.624 74.5999 323.388C74.5999 325.332 74.2129 327.024 73.4389 328.464C72.6649 329.904 71.5759 331.02 70.1719 331.812C68.7859 332.604 67.1479 333 65.2579 333H58.4539ZM71.5219 323.388C71.5219 322.038 71.2699 320.85 70.7659 319.824C70.2799 318.798 69.5689 317.988 68.6329 317.394C67.7149 316.8 66.5899 316.503 65.2579 316.503H61.4779V330.327H65.2579C66.6079 330.327 67.7419 330.021 68.6599 329.409C69.5959 328.797 70.3069 327.969 70.7929 326.925C71.2789 325.881 71.5219 324.702 71.5219 323.388ZM83.7481 333.27C82.2721 333.27 80.9851 332.937 79.8871 332.271C78.8071 331.587 77.9701 330.696 77.3761 329.598C76.7821 328.482 76.4851 327.267 76.4851 325.953C76.4851 324.639 76.7821 323.433 77.3761 322.335C77.9881 321.219 78.8341 320.328 79.9141 319.662C81.0121 318.978 82.2901 318.636 83.7481 318.636C85.2061 318.636 86.4751 318.978 87.5551 319.662C88.6531 320.328 89.4991 321.219 90.0931 322.335C90.7051 323.433 91.0111 324.639 91.0111 325.953C91.0111 327.267 90.7141 328.482 90.1201 329.598C89.5261 330.696 88.6801 331.587 87.5821 332.271C86.5021 332.937 85.2241 333.27 83.7481 333.27ZM79.5361 325.98C79.5361 326.88 79.7251 327.69 80.1031 328.41C80.4811 329.13 80.9851 329.697 81.6151 330.111C82.2451 330.525 82.9561 330.732 83.7481 330.732C84.5221 330.732 85.2241 330.525 85.8541 330.111C86.5021 329.679 87.0151 329.103 87.3931 328.383C87.7711 327.663 87.9601 326.853 87.9601 325.953C87.9601 325.053 87.7711 324.243 87.3931 323.523C87.0151 322.803 86.5021 322.236 85.8541 321.822C85.2241 321.39 84.5221 321.174 83.7481 321.174C82.9741 321.174 82.2631 321.39 81.6151 321.822C80.9851 322.236 80.4811 322.812 80.1031 323.55C79.7251 324.27 79.5361 325.08 79.5361 325.98ZM110.775 318.879H113.61L107.67 333H105.132L102.594 326.628L100.056 333H97.5177L91.5507 318.879H94.3857L98.9217 330.111L100.92 324.9L98.4897 318.906H101.001L102.594 323.307L104.16 318.906H106.671L104.268 324.9L106.266 330.111L110.775 318.879ZM128.246 333H125.276V325.089C125.276 323.757 125.06 322.794 124.628 322.2C124.214 321.588 123.593 321.282 122.765 321.282C122.189 321.282 121.613 321.426 121.037 321.714C120.479 322.002 119.975 322.398 119.525 322.902C119.075 323.406 118.751 323.973 118.553 324.603V333H115.583V318.879H118.283V321.714C118.823 320.778 119.606 320.031 120.632 319.473C121.658 318.915 122.792 318.636 124.034 318.636C125.15 318.636 126.014 318.906 126.626 319.446C127.238 319.968 127.661 320.661 127.895 321.525C128.129 322.389 128.246 323.343 128.246 324.387V333ZM131.72 313.29H134.69V328.923C134.69 329.643 134.798 330.102 135.014 330.3C135.23 330.498 135.5 330.597 135.824 330.597C136.184 330.597 136.526 330.561 136.85 330.489C137.174 330.417 137.444 330.327 137.66 330.219L138.092 332.568C137.66 332.748 137.147 332.901 136.553 333.027C135.959 333.153 135.428 333.216 134.96 333.216C133.952 333.216 133.16 332.937 132.584 332.379C132.008 331.803 131.72 331.011 131.72 330.003V313.29ZM146.159 333.27C144.683 333.27 143.396 332.937 142.298 332.271C141.218 331.587 140.381 330.696 139.787 329.598C139.193 328.482 138.896 327.267 138.896 325.953C138.896 324.639 139.193 323.433 139.787 322.335C140.399 321.219 141.245 320.328 142.325 319.662C143.423 318.978 144.701 318.636 146.159 318.636C147.617 318.636 148.886 318.978 149.966 319.662C151.064 320.328 151.91 321.219 152.504 322.335C153.116 323.433 153.422 324.639 153.422 325.953C153.422 327.267 153.125 328.482 152.531 329.598C151.937 330.696 151.091 331.587 149.993 332.271C148.913 332.937 147.635 333.27 146.159 333.27ZM141.947 325.98C141.947 326.88 142.136 327.69 142.514 328.41C142.892 329.13 143.396 329.697 144.026 330.111C144.656 330.525 145.367 330.732 146.159 330.732C146.933 330.732 147.635 330.525 148.265 330.111C148.913 329.679 149.426 329.103 149.804 328.383C150.182 327.663 150.371 326.853 150.371 325.953C150.371 325.053 150.182 324.243 149.804 323.523C149.426 322.803 148.913 322.236 148.265 321.822C147.635 321.39 146.933 321.174 146.159 321.174C145.385 321.174 144.674 321.39 144.026 321.822C143.396 322.236 142.892 322.812 142.514 323.55C142.136 324.27 141.947 325.08 141.947 325.98ZM155.03 328.869C155.03 327.969 155.282 327.186 155.786 326.52C156.29 325.836 156.992 325.314 157.892 324.954C158.81 324.576 159.863 324.387 161.051 324.387C161.681 324.387 162.32 324.441 162.968 324.549C163.634 324.639 164.219 324.774 164.723 324.954V324.063C164.723 323.073 164.426 322.299 163.832 321.741C163.238 321.183 162.383 320.904 161.267 320.904C160.493 320.904 159.746 321.039 159.026 321.309C158.306 321.579 157.559 321.975 156.785 322.497L155.786 320.499C156.722 319.887 157.658 319.428 158.594 319.122C159.548 318.798 160.547 318.636 161.591 318.636C163.481 318.636 164.966 319.14 166.046 320.148C167.144 321.138 167.693 322.551 167.693 324.387V329.652C167.693 329.994 167.747 330.237 167.855 330.381C167.981 330.525 168.188 330.606 168.476 330.624V333C168.206 333.054 167.963 333.09 167.747 333.108C167.531 333.126 167.351 333.135 167.207 333.135C166.559 333.135 166.073 332.982 165.749 332.676C165.443 332.352 165.263 331.992 165.209 331.596L165.128 330.786C164.516 331.578 163.733 332.19 162.779 332.622C161.825 333.054 160.862 333.27 159.89 333.27C158.954 333.27 158.117 333.081 157.379 332.703C156.641 332.307 156.065 331.776 155.651 331.11C155.237 330.444 155.03 329.697 155.03 328.869ZM164.021 329.733C164.489 329.265 164.723 328.824 164.723 328.41V326.79C163.661 326.394 162.581 326.196 161.483 326.196C160.403 326.196 159.521 326.421 158.837 326.871C158.171 327.303 157.838 327.888 157.838 328.626C157.838 329.238 158.081 329.805 158.567 330.327C159.071 330.831 159.791 331.083 160.727 331.083C161.357 331.083 161.969 330.957 162.563 330.705C163.157 330.453 163.643 330.129 164.021 329.733ZM170.406 325.953C170.406 324.603 170.676 323.379 171.216 322.281C171.774 321.165 172.53 320.283 173.484 319.635C174.438 318.969 175.536 318.636 176.778 318.636C177.858 318.636 178.83 318.915 179.694 319.473C180.576 320.031 181.26 320.724 181.746 321.552V313.29H184.716V329.652C184.716 329.994 184.779 330.237 184.905 330.381C185.031 330.525 185.238 330.606 185.526 330.624V333C184.968 333.09 184.536 333.135 184.23 333.135C183.672 333.135 183.195 332.982 182.799 332.676C182.421 332.352 182.223 331.956 182.205 331.488L182.178 330.435C181.638 331.335 180.909 332.037 179.991 332.541C179.073 333.027 178.119 333.27 177.129 333.27C175.833 333.27 174.672 332.937 173.646 332.271C172.638 331.605 171.846 330.723 171.27 329.625C170.694 328.509 170.406 327.285 170.406 325.953ZM181.746 327.924V324.225C181.53 323.649 181.206 323.136 180.774 322.686C180.342 322.218 179.847 321.849 179.289 321.579C178.749 321.309 178.209 321.174 177.669 321.174C176.823 321.174 176.085 321.408 175.455 321.876C174.843 322.326 174.357 322.92 173.997 323.658C173.655 324.396 173.484 325.179 173.484 326.007C173.484 326.871 173.673 327.663 174.051 328.383C174.447 329.103 174.978 329.679 175.644 330.111C176.31 330.525 177.057 330.732 177.885 330.732C178.389 330.732 178.911 330.615 179.451 330.381C180.009 330.129 180.495 329.796 180.909 329.382C181.323 328.95 181.602 328.464 181.746 327.924Z" fill="black"/>
<defs>
<filter id="filter0_d" x="0" y="0" width="243" height="382" filterUnits="userSpaceOnUse" color-interpolation-filters="sRGB">
<feFlood flood-opacity="0" result="BackgroundImageFix"/>
<feColorMatrix in="SourceAlpha" type="matrix" values="0 0 0 0 0 0 0 0 0 0 0 0 0 0 0 0 0 0 127 0"/>
<feOffset dy="4"/>
<feGaussianBlur stdDeviation="4"/>
<feColorMatrix type="matrix" values="0 0 0 0 0 0 0 0 0 0 0 0 0 0 0 0 0 0 0.25 0"/>
<feBlend mode="normal" in2="BackgroundImageFix" result="effect1_dropShadow"/>
<feBlend mode="normal" in="SourceGraphic" in2="effect1_dropShadow" result="shape"/>
</filter>
<clipPath id="clip0">
<rect width="170" height="170" fill="white" transform="translate(37 53)"/>
</clipPath>
</defs>
</svg>
