<svg width="243" height="382" viewBox="0 0 243 382" fill="none" xmlns="http://www.w3.org/2000/svg">
<g filter="url(#filter0_d)">
<rect x="8" y="4" width="227" height="366" rx="35" fill="white" fill-opacity="0.9"/>
</g>
<g clip-path="url(#clip0)">
<path d="M153.868 53C144.805 53.6269 134.212 59.4281 128.038 66.9824C122.407 73.8355 117.775 84.0142 119.581 93.906C129.483 94.2141 139.715 88.2748 145.644 80.593C151.19 73.4424 155.387 63.3274 153.868 53Z" fill="#4997D0"/>
<path d="M189.684 110.035C180.983 99.1229 168.753 92.7904 157.204 92.7904C141.957 92.7904 135.508 100.09 124.915 100.09C113.992 100.09 105.694 92.8116 92.5087 92.8116C79.5569 92.8116 65.7658 100.727 57.0215 114.263C44.7284 133.325 46.8321 169.162 66.7539 199.688C73.8832 210.61 83.4032 222.893 95.8556 222.999C106.937 223.105 110.061 215.891 125.074 215.817C140.087 215.732 142.935 223.095 153.995 222.978C166.458 222.882 176.499 209.272 183.628 198.349C188.739 190.519 190.641 186.577 194.604 177.737C165.778 166.761 161.156 125.77 189.684 110.035Z" fill="#4997D0"/>
</g>
<path d="M91.0417 281.83H93.9037L101.356 301H98.1697L96.1447 295.789H88.7467L86.7487 301H83.5357L91.0417 281.83ZM95.5507 293.548L92.4727 285.151L89.2867 293.548H95.5507ZM111.367 301.27C110.233 301.27 109.234 301 108.37 300.46C107.506 299.92 106.822 299.218 106.318 298.354V306.751H103.348V286.879H105.967V289.417C106.507 288.571 107.209 287.896 108.073 287.392C108.937 286.888 109.9 286.636 110.962 286.636C112.258 286.636 113.401 286.978 114.391 287.662C115.399 288.328 116.191 289.219 116.767 290.335C117.343 291.433 117.631 292.63 117.631 293.926C117.631 295.294 117.361 296.536 116.821 297.652C116.281 298.75 115.543 299.632 114.607 300.298C113.671 300.946 112.591 301.27 111.367 301.27ZM110.395 298.732C111.241 298.732 111.97 298.507 112.582 298.057C113.212 297.589 113.698 296.995 114.04 296.275C114.4 295.537 114.58 294.754 114.58 293.926C114.58 293.062 114.382 292.27 113.986 291.55C113.608 290.83 113.086 290.254 112.42 289.822C111.772 289.39 111.025 289.174 110.179 289.174C109.675 289.174 109.144 289.3 108.586 289.552C108.046 289.804 107.569 290.137 107.155 290.551C106.741 290.965 106.462 291.433 106.318 291.955V295.654C106.678 296.518 107.227 297.247 107.965 297.841C108.721 298.435 109.531 298.732 110.395 298.732ZM128.322 301.27C127.188 301.27 126.189 301 125.325 300.46C124.461 299.92 123.777 299.218 123.273 298.354V306.751H120.303V286.879H122.922V289.417C123.462 288.571 124.164 287.896 125.028 287.392C125.892 286.888 126.855 286.636 127.917 286.636C129.213 286.636 130.356 286.978 131.346 287.662C132.354 288.328 133.146 289.219 133.722 290.335C134.298 291.433 134.586 292.63 134.586 293.926C134.586 295.294 134.316 296.536 133.776 297.652C133.236 298.75 132.498 299.632 131.562 300.298C130.626 300.946 129.546 301.27 128.322 301.27ZM127.35 298.732C128.196 298.732 128.925 298.507 129.537 298.057C130.167 297.589 130.653 296.995 130.995 296.275C131.355 295.537 131.535 294.754 131.535 293.926C131.535 293.062 131.337 292.27 130.941 291.55C130.563 290.83 130.041 290.254 129.375 289.822C128.727 289.39 127.98 289.174 127.134 289.174C126.63 289.174 126.099 289.3 125.541 289.552C125.001 289.804 124.524 290.137 124.11 290.551C123.696 290.965 123.417 291.433 123.273 291.955V295.654C123.633 296.518 124.182 297.247 124.92 297.841C125.676 298.435 126.486 298.732 127.35 298.732ZM137.284 281.29H140.254V296.923C140.254 297.643 140.362 298.102 140.578 298.3C140.794 298.498 141.064 298.597 141.388 298.597C141.748 298.597 142.09 298.561 142.414 298.489C142.738 298.417 143.008 298.327 143.224 298.219L143.656 300.568C143.224 300.748 142.711 300.901 142.117 301.027C141.523 301.153 140.992 301.216 140.524 301.216C139.516 301.216 138.724 300.937 138.148 300.379C137.572 299.803 137.284 299.011 137.284 298.003V281.29ZM151.777 301.27C150.319 301.27 149.041 300.937 147.943 300.271C146.845 299.605 145.99 298.723 145.378 297.625C144.766 296.509 144.46 295.294 144.46 293.98C144.46 292.648 144.766 291.424 145.378 290.308C145.99 289.192 146.845 288.301 147.943 287.635C149.041 286.969 150.328 286.636 151.804 286.636C153.28 286.636 154.558 286.978 155.638 287.662C156.718 288.328 157.546 289.21 158.122 290.308C158.716 291.406 159.013 292.585 159.013 293.845C159.013 294.295 158.986 294.655 158.932 294.925H147.619C147.673 295.753 147.898 296.482 148.294 297.112C148.708 297.724 149.221 298.21 149.833 298.57C150.463 298.912 151.147 299.083 151.885 299.083C152.677 299.083 153.424 298.885 154.126 298.489C154.828 298.093 155.314 297.571 155.584 296.923L158.122 297.652C157.636 298.714 156.826 299.587 155.692 300.271C154.576 300.937 153.271 301.27 151.777 301.27ZM147.538 292.954H156.07C155.998 292.144 155.764 291.433 155.368 290.821C154.972 290.191 154.459 289.705 153.829 289.363C153.217 289.003 152.533 288.823 151.777 288.823C151.039 288.823 150.355 289.003 149.725 289.363C149.113 289.705 148.609 290.191 148.213 290.821C147.817 291.433 147.592 292.144 147.538 292.954ZM58.4539 333V313.83H65.2579C67.3279 313.83 69.0469 314.262 70.4149 315.126C71.8009 315.972 72.8449 317.124 73.5469 318.582C74.2489 320.022 74.5999 321.624 74.5999 323.388C74.5999 325.332 74.2129 327.024 73.4389 328.464C72.6649 329.904 71.5759 331.02 70.1719 331.812C68.7859 332.604 67.1479 333 65.2579 333H58.4539ZM71.5219 323.388C71.5219 322.038 71.2699 320.85 70.7659 319.824C70.2799 318.798 69.5689 317.988 68.6329 317.394C67.7149 316.8 66.5899 316.503 65.2579 316.503H61.4779V330.327H65.2579C66.6079 330.327 67.7419 330.021 68.6599 329.409C69.5959 328.797 70.3069 327.969 70.7929 326.925C71.2789 325.881 71.5219 324.702 71.5219 323.388ZM83.7481 333.27C82.2721 333.27 80.9851 332.937 79.8871 332.271C78.8071 331.587 77.9701 330.696 77.3761 329.598C76.7821 328.482 76.4851 327.267 76.4851 325.953C76.4851 324.639 76.7821 323.433 77.3761 322.335C77.9881 321.219 78.8341 320.328 79.9141 319.662C81.0121 318.978 82.2901 318.636 83.7481 318.636C85.2061 318.636 86.4751 318.978 87.5551 319.662C88.6531 320.328 89.4991 321.219 90.0931 322.335C90.7051 323.433 91.0111 324.639 91.0111 325.953C91.0111 327.267 90.7141 328.482 90.1201 329.598C89.5261 330.696 88.6801 331.587 87.5821 332.271C86.5021 332.937 85.2241 333.27 83.7481 333.27ZM79.5361 325.98C79.5361 326.88 79.7251 327.69 80.1031 328.41C80.4811 329.13 80.9851 329.697 81.6151 330.111C82.2451 330.525 82.9561 330.732 83.7481 330.732C84.5221 330.732 85.2241 330.525 85.8541 330.111C86.5021 329.679 87.0151 329.103 87.3931 328.383C87.7711 327.663 87.9601 326.853 87.9601 325.953C87.9601 325.053 87.7711 324.243 87.3931 323.523C87.0151 322.803 86.5021 322.236 85.8541 321.822C85.2241 321.39 84.5221 321.174 83.7481 321.174C82.9741 321.174 82.2631 321.39 81.6151 321.822C80.9851 322.236 80.4811 322.812 80.1031 323.55C79.7251 324.27 79.5361 325.08 79.5361 325.98ZM110.775 318.879H113.61L107.67 333H105.132L102.594 326.628L100.056 333H97.5177L91.5507 318.879H94.3857L98.9217 330.111L100.92 324.9L98.4897 318.906H101.001L102.594 323.307L104.16 318.906H106.671L104.268 324.9L106.266 330.111L110.775 318.879ZM128.246 333H125.276V325.089C125.276 323.757 125.06 322.794 124.628 322.2C124.214 321.588 123.593 321.282 122.765 321.282C122.189 321.282 121.613 321.426 121.037 321.714C120.479 322.002 119.975 322.398 119.525 322.902C119.075 323.406 118.751 323.973 118.553 324.603V333H115.583V318.879H118.283V321.714C118.823 320.778 119.606 320.031 120.632 319.473C121.658 318.915 122.792 318.636 124.034 318.636C125.15 318.636 126.014 318.906 126.626 319.446C127.238 319.968 127.661 320.661 127.895 321.525C128.129 322.389 128.246 323.343 128.246 324.387V333ZM131.72 313.29H134.69V328.923C134.69 329.643 134.798 330.102 135.014 330.3C135.23 330.498 135.5 330.597 135.824 330.597C136.184 330.597 136.526 330.561 136.85 330.489C137.174 330.417 137.444 330.327 137.66 330.219L138.092 332.568C137.66 332.748 137.147 332.901 136.553 333.027C135.959 333.153 135.428 333.216 134.96 333.216C133.952 333.216 133.16 332.937 132.584 332.379C132.008 331.803 131.72 331.011 131.72 330.003V313.29ZM146.159 333.27C144.683 333.27 143.396 332.937 142.298 332.271C141.218 331.587 140.381 330.696 139.787 329.598C139.193 328.482 138.896 327.267 138.896 325.953C138.896 324.639 139.193 323.433 139.787 322.335C140.399 321.219 141.245 320.328 142.325 319.662C143.423 318.978 144.701 318.636 146.159 318.636C147.617 318.636 148.886 318.978 149.966 319.662C151.064 320.328 151.91 321.219 152.504 322.335C153.116 323.433 153.422 324.639 153.422 325.953C153.422 327.267 153.125 328.482 152.531 329.598C151.937 330.696 151.091 331.587 149.993 332.271C148.913 332.937 147.635 333.27 146.159 333.27ZM141.947 325.98C141.947 326.88 142.136 327.69 142.514 328.41C142.892 329.13 143.396 329.697 144.026 330.111C144.656 330.525 145.367 330.732 146.159 330.732C146.933 330.732 147.635 330.525 148.265 330.111C148.913 329.679 149.426 329.103 149.804 328.383C150.182 327.663 150.371 326.853 150.371 325.953C150.371 325.053 150.182 324.243 149.804 323.523C149.426 322.803 148.913 322.236 148.265 321.822C147.635 321.39 146.933 321.174 146.159 321.174C145.385 321.174 144.674 321.39 144.026 321.822C143.396 322.236 142.892 322.812 142.514 323.55C142.136 324.27 141.947 325.08 141.947 325.98ZM155.03 328.869C155.03 327.969 155.282 327.186 155.786 326.52C156.29 325.836 156.992 325.314 157.892 324.954C158.81 324.576 159.863 324.387 161.051 324.387C161.681 324.387 162.32 324.441 162.968 324.549C163.634 324.639 164.219 324.774 164.723 324.954V324.063C164.723 323.073 164.426 322.299 163.832 321.741C163.238 321.183 162.383 320.904 161.267 320.904C160.493 320.904 159.746 321.039 159.026 321.309C158.306 321.579 157.559 321.975 156.785 322.497L155.786 320.499C156.722 319.887 157.658 319.428 158.594 319.122C159.548 318.798 160.547 318.636 161.591 318.636C163.481 318.636 164.966 319.14 166.046 320.148C167.144 321.138 167.693 322.551 167.693 324.387V329.652C167.693 329.994 167.747 330.237 167.855 330.381C167.981 330.525 168.188 330.606 168.476 330.624V333C168.206 333.054 167.963 333.09 167.747 333.108C167.531 333.126 167.351 333.135 167.207 333.135C166.559 333.135 166.073 332.982 165.749 332.676C165.443 332.352 165.263 331.992 165.209 331.596L165.128 330.786C164.516 331.578 163.733 332.19 162.779 332.622C161.825 333.054 160.862 333.27 159.89 333.27C158.954 333.27 158.117 333.081 157.379 332.703C156.641 332.307 156.065 331.776 155.651 331.11C155.237 330.444 155.03 329.697 155.03 328.869ZM164.021 329.733C164.489 329.265 164.723 328.824 164.723 328.41V326.79C163.661 326.394 162.581 326.196 161.483 326.196C160.403 326.196 159.521 326.421 158.837 326.871C158.171 327.303 157.838 327.888 157.838 328.626C157.838 329.238 158.081 329.805 158.567 330.327C159.071 330.831 159.791 331.083 160.727 331.083C161.357 331.083 161.969 330.957 162.563 330.705C163.157 330.453 163.643 330.129 164.021 329.733ZM170.406 325.953C170.406 324.603 170.676 323.379 171.216 322.281C171.774 321.165 172.53 320.283 173.484 319.635C174.438 318.969 175.536 318.636 176.778 318.636C177.858 318.636 178.83 318.915 179.694 319.473C180.576 320.031 181.26 320.724 181.746 321.552V313.29H184.716V329.652C184.716 329.994 184.779 330.237 184.905 330.381C185.031 330.525 185.238 330.606 185.526 330.624V333C184.968 333.09 184.536 333.135 184.23 333.135C183.672 333.135 183.195 332.982 182.799 332.676C182.421 332.352 182.223 331.956 182.205 331.488L182.178 330.435C181.638 331.335 180.909 332.037 179.991 332.541C179.073 333.027 178.119 333.27 177.129 333.27C175.833 333.27 174.672 332.937 173.646 332.271C172.638 331.605 171.846 330.723 171.27 329.625C170.694 328.509 170.406 327.285 170.406 325.953ZM181.746 327.924V324.225C181.53 323.649 181.206 323.136 180.774 322.686C180.342 322.218 179.847 321.849 179.289 321.579C178.749 321.309 178.209 321.174 177.669 321.174C176.823 321.174 176.085 321.408 175.455 321.876C174.843 322.326 174.357 322.92 173.997 323.658C173.655 324.396 173.484 325.179 173.484 326.007C173.484 326.871 173.673 327.663 174.051 328.383C174.447 329.103 174.978 329.679 175.644 330.111C176.31 330.525 177.057 330.732 177.885 330.732C178.389 330.732 178.911 330.615 179.451 330.381C180.009 330.129 180.495 329.796 180.909 329.382C181.323 328.95 181.602 328.464 181.746 327.924Z" fill="black"/>
<defs>
<filter id="filter0_d" x="0" y="0" width="243" height="382" filterUnits="userSpaceOnUse" color-interpolation-filters="sRGB">
<feFlood flood-opacity="0" result="BackgroundImageFix"/>
<feColorMatrix in="SourceAlpha" type="matrix" values="0 0 0 0 0 0 0 0 0 0 0 0 0 0 0 0 0 0 127 0"/>
<feOffset dy="4"/>
<feGaussianBlur stdDeviation="4"/>
<feColorMatrix type="matrix" values="0 0 0 0 0 0 0 0 0 0 0 0 0 0 0 0 0 0 0.25 0"/>
<feBlend mode="normal" in2="BackgroundImageFix" result="effect1_dropShadow"/>
<feBlend mode="normal" in="SourceGraphic" in2="effect1_dropShadow" result="shape"/>
</filter>
<clipPath id="clip0">
<rect width="170" height="170" fill="white" transform="translate(37 53)"/>
</clipPath>
</defs>
</svg>
